<svg width="235" height="83" viewBox="0 0 235 83" fill="none" xmlns="http://www.w3.org/2000/svg">
<path d="M28.6908 51.7762H41.7278L48.2817 60.2078L54.7293 67.7182L66.8807 82.9517H52.5683L44.2076 72.6779L39.921 66.5846L28.6908 51.7762ZM67.9789 40.7231C67.9789 48.6351 66.4792 55.3661 63.4797 60.9163C60.5039 66.4665 56.4416 70.7059 51.293 73.6345C46.1679 76.5395 40.4052 77.9919 34.0047 77.9919C27.5571 77.9919 21.7707 76.5276 16.6457 73.599C11.5206 70.6704 7.47018 66.431 4.49434 60.8809C1.5185 55.3307 0.030585 48.6114 0.030585 40.7231C0.030585 32.8112 1.5185 26.0801 4.49434 20.5299C7.47018 14.9797 11.5206 10.7522 16.6457 7.84717C21.7707 4.91857 27.5571 3.45426 34.0047 3.45426C40.4052 3.45426 46.1679 4.91857 51.293 7.84717C56.4416 10.7522 60.5039 14.9797 63.4797 20.5299C66.4792 26.0801 67.9789 32.8112 67.9789 40.7231ZM52.4266 40.7231C52.4266 35.598 51.659 31.276 50.1239 27.7569C48.6123 24.2379 46.4749 21.5691 43.7117 19.7505C40.9484 17.932 37.7127 17.0227 34.0047 17.0227C30.2968 17.0227 27.0611 17.932 24.2978 19.7505C21.5346 21.5691 19.3853 24.2379 17.8502 27.7569C16.3387 31.276 15.5829 35.598 15.5829 40.7231C15.5829 45.8482 16.3387 50.1702 17.8502 53.6893C19.3853 57.2083 21.5346 59.8771 24.2978 61.6957C27.0611 63.5143 30.2968 64.4235 34.0047 64.4235C37.7127 64.4235 40.9484 63.5143 43.7117 61.6957C46.4749 59.8771 48.6123 57.2083 50.1239 53.6893C51.659 50.1702 52.4266 45.8482 52.4266 40.7231ZM124.157 4.44621H139.496V51.5637C139.496 56.854 138.233 61.4831 135.706 65.4509C133.202 69.4187 129.695 72.5126 125.184 74.7327C120.673 76.9291 115.418 78.0274 109.419 78.0274C103.397 78.0274 98.1299 76.9291 93.619 74.7327C89.108 72.5126 85.6007 69.4187 83.0972 65.4509C80.5938 61.4831 79.342 56.854 79.342 51.5637V4.44621H94.6818V50.2529C94.6818 53.0162 95.284 55.4724 96.4885 57.6216C97.7166 59.7708 99.4407 61.4595 101.661 62.6876C103.881 63.9158 106.467 64.5298 109.419 64.5298C112.395 64.5298 114.981 63.9158 117.178 62.6876C119.398 61.4595 121.11 59.7708 122.315 57.6216C123.543 55.4724 124.157 53.0162 124.157 50.2529V4.44621ZM178.519 77V67.8953L214.725 17.0935H178.448V4.44621H233.997V13.5509L197.756 64.3527H234.068V77H178.519Z" fill="#3C3C3C"/>
<path d="M151.834 77V22.5847H166.926V77H151.834ZM159.415 15.5702C157.171 15.5702 155.247 14.8262 153.641 13.3383C152.058 11.8268 151.267 10.02 151.267 7.91802C151.267 5.83966 152.058 4.05652 153.641 2.5686C155.247 1.05706 157.171 0.301289 159.415 0.301289C161.659 0.301289 163.572 1.05706 165.154 2.5686C166.76 4.05652 167.563 5.83966 167.563 7.91802C167.563 10.02 166.76 11.8268 165.154 13.3383C163.572 14.8262 161.659 15.5702 159.415 15.5702Z" fill="#7C86FF"/>
</svg>
